<svg t="1626425115248" class="icon" viewBox="0 0 1024 1024" version="1.1" xmlns="http://www.w3.org/2000/svg" p-id="1261" width="200" height="200"><path d="M512 512m-512 0a512 512 0 1 0 1024 0 512 512 0 1 0-1024 0Z" fill="#90DFAA" p-id="1262"></path><path d="M512 192C335.238095 192 192 335.238095 192 512H512V192z" fill="#2B3B4E" p-id="1263"></path><path d="M192 512c0 88.380952 35.75873 168.431746 93.663492 226.336508L512 512H192z" fill="#324A5E" p-id="1264"></path><path d="M285.663492 738.336508c57.904762 57.904762 137.955556 93.663492 226.336508 93.663492s168.431746-35.75873 226.336508-93.663492L512 512 285.663492 738.336508z" fill="#F9B54C" p-id="1265"></path><path d="M512 192V512l226.336508-226.336508c-57.904762-57.904762-137.955556-93.663492-226.336508-93.663492z" fill="#FF7058" p-id="1266"></path><path d="M738.336508 285.663492L512 512l226.336508 226.336508c57.904762-57.904762 93.663492-137.955556 93.663492-226.336508s-35.75873-168.431746-93.663492-226.336508z" fill="#F1543F" p-id="1267"></path></svg>